<?xml version="1.0" encoding="utf-8"?>
<!-- Generator: Adobe Illustrator 24.0.0, SVG Export Plug-In . SVG Version: 6.00 Build 0)  -->
<svg version="1.1" id="图层_1" xmlns="http://www.w3.org/2000/svg" xmlns:xlink="http://www.w3.org/1999/xlink" x="0px" y="0px"
	 viewBox="0 0 250 200" style="enable-background:new 0 0 250 200;" xml:space="preserve">
<style type="text/css">
	.st0{fill:#545454;}
</style>
<path class="st0" d="M204.9,27.3c-0.1-0.1-0.2-0.2-0.3-0.3c-14.9-6.8-30.6-11.7-46.8-14.5c-0.3-0.1-0.6,0.1-0.8,0.4
	c-2.1,3.9-4.1,7.9-5.8,12c-17.4-2.6-35.1-2.6-52.5,0c-1.7-4.1-3.7-8.1-5.9-12c-0.2-0.3-0.5-0.4-0.8-0.4C76,15.3,60.2,20.2,45.3,27
	c-0.1,0.1-0.2,0.1-0.3,0.3C15.3,71.7,7.1,115.1,11.1,158c0,0.2,0.1,0.4,0.3,0.5c17.3,12.8,36.7,22.6,57.4,29c0.3,0.1,0.6,0,0.8-0.3
	c4.4-6,8.4-12.4,11.7-19.1c0.2-0.4,0-0.8-0.3-1h-0.1c-6.2-2.4-12.2-5.2-17.9-8.5c-0.4-0.2-0.5-0.7-0.3-1c0-0.1,0.1-0.2,0.2-0.2
	c1.2-0.9,2.4-1.8,3.6-2.8c0.2-0.2,0.5-0.2,0.7-0.1c37.6,17.2,78.3,17.2,115.4,0c0.2-0.1,0.5-0.1,0.8,0.1c1.2,1,2.4,1.9,3.6,2.8
	c0.3,0.2,0.4,0.7,0.1,1c-0.1,0.1-0.1,0.1-0.2,0.2c-5.7,3.3-11.7,6.2-17.9,8.5c-0.4,0.1-0.6,0.6-0.4,0.9v0.1
	c3.4,6.6,7.4,13,11.7,19.1c0.2,0.3,0.5,0.4,0.8,0.3c20.7-6.3,40.1-16.1,57.4-29c0.2-0.1,0.3-0.3,0.3-0.5
	C243.6,108.4,230.8,65.4,204.9,27.3L204.9,27.3z M86.9,131.9c-11.3,0-20.6-10.4-20.6-23.1s9.1-23.1,20.6-23.1
	c11.6,0,20.8,10.5,20.6,23.1C107.6,121.5,98.4,131.9,86.9,131.9z M163.2,131.9c-11.3,0-20.6-10.4-20.6-23.1s9.1-23.1,20.6-23.1
	c11.6,0,20.8,10.5,20.6,23.1C183.9,121.5,174.8,131.9,163.2,131.9z"/>
</svg>
