<?xml version="1.0" encoding="utf-8"?>
<!-- Generator: Adobe Illustrator 24.0.0, SVG Export Plug-In . SVG Version: 6.00 Build 0)  -->
<svg version="1.1" id="图层_1" xmlns="http://www.w3.org/2000/svg" xmlns:xlink="http://www.w3.org/1999/xlink" x="0px" y="0px"
	 viewBox="0 0 200 200" style="enable-background:new 0 0 200 200;" xml:space="preserve">
<style type="text/css">
	.st0{fill:#545454;}
</style>
<path class="st0" d="M136.8,153.5c-3.5-16-7.7-30.8-11.8-43.8c4.2-0.6,8.3-0.9,13.2-0.9h0.2l0,0l0,0c7.8,0,16.3,1,25.5,3.1
	C160.7,129.2,150.7,143.9,136.8,153.5 M100,165c-14.5,0-27.8-4.8-38.7-12.8c2.3-3.8,7.3-11,15.2-18.5c8-7.8,19.3-15.8,33.8-20.5
	c4.9,13.9,9.4,29.8,12.8,47.6C115.9,163.5,108.3,165,100,165 M35,100c0-0.3,0-0.6,0-0.9c1.8,0.1,4.3,0.1,7.1,0.1h0.1
	c13-0.1,35.8-1.2,59-8.4c1.3,2.8,2.5,5.6,3.8,8.6c-15.5,5.2-27.7,13.4-36.7,21.5c-8.6,8-14.5,15.7-17.9,20.8
	C40.8,130.5,35,115.9,35,100 M71.3,41.7c4.6,5.4,13.6,17.2,23.3,35.4C75,83,55.1,84.3,43.2,84.3c-0.3,0-0.7,0-1,0h-0.1
	c-2,0-3.8,0-5.2-0.1C41.7,65.6,54.2,50,71.3,41.7 M100,35c15.3,0,29.4,5.3,40.5,14.3c-8.5,10.3-19.7,17.4-31.9,22.8
	C100,55.6,91.7,43.8,86.2,36.5C90.7,35.6,95.3,35,100,35 M151.1,59.8c8.1,10.3,13.2,23.2,13.8,37.1c-9.4-2-18.3-2.9-26.6-2.9l0,0
	h-0.1c-6.7,0-12.9,0.6-18.8,1.6c-1.4-3.5-2.8-6.8-4.3-10.1C128.3,79.8,140.8,71.5,151.1,59.8 M100,16.7C54,16.7,16.7,54,16.7,100
	S54,183.3,100,183.3s83.3-37.3,83.3-83.3S146,16.7,100,16.7z"/>
</svg>
